<svg xmlns="http://www.w3.org/2000/svg" fill="none" viewBox="0 0 1080 1080" height="1080" width="1080">
<rect fill="#C7B9FF" height="1080" width="1080"></rect>
<rect stroke-width="4.89164" stroke="black" transform="rotate(-180 935 879)" height="678" width="791" y="879" x="935"></rect>
<rect stroke-width="4.89164" stroke="black" fill="white" transform="rotate(-180 169.336 904.397)" height="50" width="50" y="904.397" x="169.336"></rect>
<rect stroke-width="4.89164" stroke="black" fill="white" transform="rotate(-180 960 904.397)" height="50" width="50" y="904.397" x="960"></rect>
<rect stroke-width="4.89164" stroke="black" fill="white" transform="rotate(-180 169.336 226)" height="50" width="50" y="226" x="169.336"></rect>
<rect stroke-width="4.89164" stroke="black" fill="white" transform="rotate(-180 960 226)" height="50" width="50" y="226" x="960"></rect>
<path stroke-width="4" stroke="black" fill="#FF8577" d="M935 343.022L402.239 876.046L147.445 622.129L285.475 483.509L401.973 599.607L796.704 204.669L935 343.022Z" clip-rule="evenodd" fill-rule="evenodd"></path>
<mask fill="black" height="168" width="297" y="158.723" x="249.777" maskUnits="userSpaceOnUse" id="path-7-outside-1_1072_5957">
<rect height="168" width="297" y="158.723" x="249.777" fill="white"></rect>
<path d="M254 163L486.068 163L486.068 247.613L254 247.613L254 163Z"></path>
<path d="M529.089 257.614L540.777 318.723L489.35 288.169L515.064 281.118L529.089 257.614Z"></path>
</mask>
<path fill="#5551FF" d="M254 163L486.068 163L486.068 247.613L254 247.613L254 163Z"></path>
<path fill="#5551FF" d="M529.089 257.614L540.777 318.723L489.35 288.169L515.064 281.118L529.089 257.614Z"></path>
<path mask="url(#path-7-outside-1_1072_5957)" fill="black" d="M254 163L254 159L250 159L250 163L254 163ZM486.068 163L490.068 163L490.068 159L486.068 159L486.068 163ZM486.068 247.613L486.068 251.613L490.068 251.613L490.068 247.613L486.068 247.613ZM254 247.613L250 247.613L250 251.613L254 251.613L254 247.613ZM540.777 318.723L538.734 322.162L546.376 326.702L544.706 317.972L540.777 318.723ZM529.089 257.614L533.018 256.863L531.043 246.535L525.654 255.564L529.089 257.614ZM515.064 281.118L516.122 284.975L517.674 284.55L518.499 283.167L515.064 281.118ZM489.35 288.169L488.293 284.311L479.216 286.8L487.307 291.607L489.35 288.169ZM254 167L486.068 167L486.068 159L254 159L254 167ZM482.068 163L482.068 247.613L490.068 247.613L490.068 163L482.068 163ZM486.068 243.613L254 243.613L254 251.613L486.068 251.613L486.068 243.613ZM258 247.613L258 163L250 163L250 247.613L258 247.613ZM544.706 317.972L533.018 256.863L525.161 258.366L536.849 319.475L544.706 317.972ZM525.654 255.564L511.629 279.068L518.499 283.167L532.524 259.664L525.654 255.564ZM514.006 277.26L488.293 284.311L490.408 292.026L516.122 284.975L514.006 277.26ZM487.307 291.607L538.734 322.162L542.82 315.284L491.394 284.73L487.307 291.607Z"></path>
<mask fill="black" height="168" width="297" y="661" x="595" maskUnits="userSpaceOnUse" id="path-9-outside-2_1072_5957">
<rect height="168" width="297" y="661" x="595" fill="white"></rect>
<path d="M887.777 824.723H655.71V740.111H887.777V824.723Z"></path>
<path d="M612.688 730.109L601 669L652.427 699.555L626.713 706.606L612.688 730.109Z"></path>
</mask>
<path fill="white" d="M887.777 824.723H655.71V740.111H887.777V824.723Z"></path>
<path fill="white" d="M612.688 730.109L601 669L652.427 699.555L626.713 706.606L612.688 730.109Z"></path>
<path mask="url(#path-9-outside-2_1072_5957)" fill="black" d="M887.777 824.723V828.723H891.777V824.723H887.777ZM655.71 824.723H651.71V828.723H655.71V824.723ZM655.71 740.111V736.111H651.71V740.111H655.71ZM887.777 740.111H891.777V736.111H887.777V740.111ZM601 669L603.043 665.561L595.401 661.021L597.071 669.751L601 669ZM612.688 730.109L608.759 730.86L610.735 741.188L616.123 732.159L612.688 730.109ZM626.713 706.606L625.656 702.748L624.103 703.174L623.279 704.556L626.713 706.606ZM652.427 699.555L653.485 703.412L662.562 700.923L654.47 696.116L652.427 699.555ZM887.777 820.723H655.71V828.723H887.777V820.723ZM659.71 824.723V740.111H651.71V824.723H659.71ZM655.71 744.111H887.777V736.111H655.71V744.111ZM883.777 740.111V824.723H891.777V740.111H883.777ZM597.071 669.751L608.759 730.86L616.617 729.358L604.929 668.249L597.071 669.751ZM616.123 732.159L630.148 708.655L623.279 704.556L609.253 728.059L616.123 732.159ZM627.771 710.463L653.485 703.412L651.369 695.697L625.656 702.748L627.771 710.463ZM654.47 696.116L603.043 665.561L598.957 672.439L650.384 702.993L654.47 696.116Z"></path>
</svg>
