<svg xmlns="http://www.w3.org/2000/svg" fill="none" viewBox="0 0 1080 1080" height="1080" width="1080">
<rect fill="#C7B9FF" height="1080" width="1080"></rect>
<mask fill="black" height="142.818" width="151.789" y="869.103" x="93.2495" maskUnits="userSpaceOnUse" id="path-1-outside-1_1072_5896">
<rect height="142.818" width="151.789" y="869.103" x="93.2495" fill="white"></rect>
<path d="M116.122 938.356L196.453 879.296L187.731 974.761L159.794 942.43L116.122 938.356Z"></path>
</mask>
<path fill="white" d="M116.122 938.356L196.453 879.296L187.731 974.761L159.794 942.43L116.122 938.356Z"></path>
<path mask="url(#path-1-outside-1_1072_5896)" fill="black" d="M196.453 879.296L200.853 879.698L201.747 869.919L193.836 875.736L196.453 879.296ZM116.122 938.356L113.505 934.796L104.146 941.676L115.711 942.755L116.122 938.356ZM159.794 942.43L163.138 939.542L161.975 938.196L160.205 938.031L159.794 942.43ZM187.731 974.761L184.388 977.65L191.185 985.517L192.131 975.163L187.731 974.761ZM193.836 875.736L113.505 934.796L118.739 941.916L199.07 882.855L193.836 875.736ZM115.711 942.755L159.384 946.83L160.205 938.031L116.532 933.956L115.711 942.755ZM156.451 945.319L184.388 977.65L191.074 971.872L163.138 939.542L156.451 945.319ZM192.131 975.163L200.853 879.698L192.053 878.894L183.331 974.359L192.131 975.163Z"></path>
<mask fill="black" height="104.053" width="122.558" y="860.551" x="842.582" maskUnits="userSpaceOnUse" id="path-3-outside-2_1072_5896">
<rect height="104.053" width="122.558" y="860.551" x="842.582" fill="white"></rect>
<path d="M951.413 889.023L853.997 867.78L900.826 951.426L913.182 910.524L951.413 889.023Z"></path>
</mask>
<path fill="#5551FF" d="M951.413 889.023L853.997 867.78L900.826 951.426L913.182 910.524L951.413 889.023Z"></path>
<path mask="url(#path-3-outside-2_1072_5896)" fill="black" d="M853.997 867.78L850.141 869.938L845.345 861.371L854.938 863.463L853.997 867.78ZM951.413 889.023L952.354 884.706L963.703 887.181L953.579 892.875L951.413 889.023ZM913.182 910.524L908.952 909.246L909.466 907.544L911.016 906.672L913.182 910.524ZM900.826 951.426L905.056 952.704L902.049 962.657L896.97 953.585L900.826 951.426ZM854.938 863.463L952.354 884.706L950.472 893.34L853.055 872.097L854.938 863.463ZM953.579 892.875L915.348 914.375L911.016 906.672L949.247 885.172L953.579 892.875ZM917.412 911.801L905.056 952.704L896.596 950.149L908.952 909.246L917.412 911.801ZM896.97 953.585L850.141 869.938L857.852 865.621L904.681 949.268L896.97 953.585Z"></path>
<mask fill="black" height="134.55" width="146.334" y="78.7922" x="664.482" maskUnits="userSpaceOnUse" id="path-5-outside-3_1072_5896">
<rect height="134.55" width="146.334" y="78.7922" x="664.482" fill="white"></rect>
<path d="M685.213 154.218L771.719 203.795L752.235 109.933L728.142 145.221L685.213 154.218Z"></path>
</mask>
<path fill="#FF8577" d="M685.213 154.218L771.719 203.795L752.235 109.933L728.142 145.221L685.213 154.218Z"></path>
<path mask="url(#path-5-outside-3_1072_5896)" fill="black" d="M771.719 203.795L776.046 202.897L778.041 212.51L769.522 207.628L771.719 203.795ZM685.213 154.218L683.016 158.052L672.938 152.276L684.307 149.894L685.213 154.218ZM728.142 145.221L731.791 147.712L730.789 149.18L729.049 149.545L728.142 145.221ZM752.235 109.933L748.586 107.441L754.448 98.8549L756.562 109.035L752.235 109.933ZM769.522 207.628L683.016 158.052L687.41 150.385L773.917 199.961L769.522 207.628ZM684.307 149.894L727.236 140.896L729.049 149.545L686.119 158.543L684.307 149.894ZM724.493 142.729L748.586 107.441L755.884 112.424L731.791 147.712L724.493 142.729ZM756.562 109.035L776.046 202.897L767.393 204.693L747.909 110.831L756.562 109.035Z"></path>
<path stroke-width="3.63704" stroke="black" fill="#FFC700" d="M369.851 690.453L371.665 690.451L371.667 688.637L371.813 544.452L515.399 544.286L517.213 544.284L517.215 542.47L517.39 398.293L660.975 398.127L662.79 398.125L662.792 396.31L662.966 252.133L804.729 251.969L804.056 832.305L226.093 832.974L226.265 690.62L369.851 690.453Z"></path>
<path stroke-width="3.63704" stroke="black" fill="white" d="M830.054 250.393C830.054 263.951 819.063 274.943 805.504 274.943V274.943C791.946 274.943 780.954 263.951 780.954 250.393V250.393C780.954 236.834 791.946 225.843 805.504 225.843V225.843C819.063 225.843 830.054 236.834 830.054 250.393V250.393Z"></path>
<path stroke-width="3.63704" stroke="black" fill="white" d="M830.054 831.409C830.054 844.968 819.063 855.959 805.504 855.959V855.959C791.946 855.959 780.954 844.968 780.954 831.409V831.409C780.954 817.851 791.946 806.859 805.504 806.859V806.859C819.063 806.859 830.054 817.851 830.054 831.409V831.409Z"></path>
<path stroke-width="3.63704" stroke="black" fill="white" d="M251.765 831.409C251.765 844.968 240.774 855.959 227.215 855.959V855.959C213.657 855.959 202.665 844.968 202.665 831.409V831.409C202.665 817.851 213.657 806.859 227.215 806.859V806.859C240.774 806.859 251.765 817.851 251.765 831.409V831.409Z"></path>
<path stroke-width="3.63704" stroke="black" fill="white" d="M251.765 691.383C251.765 704.942 240.774 715.933 227.215 715.933V715.933C213.657 715.933 202.665 704.942 202.665 691.383V691.383C202.665 677.825 213.657 666.833 227.215 666.833V666.833C240.774 666.833 251.765 677.825 251.765 691.383V691.383Z"></path>
<path stroke-width="3.63704" stroke="black" fill="white" d="M399.065 691.383C399.065 704.942 388.074 715.933 374.515 715.933V715.933C360.957 715.933 349.965 704.942 349.965 691.383V691.383C349.965 677.825 360.957 666.833 374.515 666.833V666.833C388.074 666.833 399.065 677.825 399.065 691.383V691.383Z"></path>
<path stroke-width="3.63704" stroke="black" fill="white" d="M399.065 540.446C399.065 554.005 388.074 564.996 374.515 564.996V564.996C360.957 564.996 349.965 554.005 349.965 540.446V540.446C349.965 526.888 360.957 515.896 374.515 515.896V515.896C388.074 515.896 399.065 526.888 399.065 540.446V540.446Z"></path>
<path stroke-width="3.63704" stroke="black" fill="white" d="M546.365 389.509C546.365 403.068 535.374 414.059 521.815 414.059V414.059C508.257 414.059 497.265 403.068 497.265 389.509V389.509C497.265 375.951 508.257 364.959 521.815 364.959V364.959C535.374 364.959 546.365 375.951 546.365 389.509V389.509Z"></path>
<path stroke-width="3.63704" stroke="black" fill="white" d="M546.365 540.446C546.365 554.005 535.374 564.996 521.815 564.996V564.996C508.257 564.996 497.265 554.005 497.265 540.446V540.446C497.265 526.888 508.257 515.896 521.815 515.896V515.896C535.374 515.896 546.365 526.888 546.365 540.446V540.446Z"></path>
<path stroke-width="3.63704" stroke="black" fill="white" d="M693.665 389.509C693.665 403.068 682.674 414.059 669.115 414.059V414.059C655.557 414.059 644.565 403.068 644.565 389.509V389.509C644.565 375.951 655.557 364.959 669.115 364.959V364.959C682.674 364.959 693.665 375.951 693.665 389.509V389.509Z"></path>
<path stroke-width="3.63704" stroke="black" fill="white" d="M693.665 250.393C693.665 263.951 682.674 274.943 669.115 274.943V274.943C655.557 274.943 644.565 263.951 644.565 250.393V250.393C644.565 236.834 655.557 225.843 669.115 225.843V225.843C682.674 225.843 693.665 236.834 693.665 250.393V250.393Z"></path>
</svg>
