<svg xmlns="http://www.w3.org/2000/svg" fill="none" viewBox="0 0 1080 1080" height="1080" width="1080">
<g clip-path="url(#clip0_1072_5883)">
<rect fill="#C7B9FF" height="1080" width="1080"></rect>
<rect stroke-width="4" stroke="black" fill="#FF8577" transform="rotate(90 934 136.573)" rx="270.298" height="807.423" width="807.423" y="136.573" x="934"></rect>
<path stroke-width="4" stroke="white" fill="black" d="M876.985 300.686L780.141 300.162L779.617 203.318C779.145 115.847 884.885 71.7124 946.738 133.565C1008.59 195.418 964.456 301.159 876.985 300.686Z"></path>
<rect stroke-width="4" stroke="black" fill="white" transform="rotate(90 772.568 298)" rx="150.797" height="484.569" width="484.569" y="298" x="772.568"></rect>
<path fill="#C7B9FF" d="M554.357 395.907H504.902V482.328L442.215 421.223L407.245 455.311L469.943 516.429H381.267V564.638H469.944L407.246 625.755L442.216 659.844L504.902 598.739V685.16H554.357V598.715L617.067 659.844L652.038 625.755L589.339 564.638H678V516.429H589.341L652.039 455.311L617.068 421.223L554.357 482.353V395.907Z" clip-rule="evenodd" fill-rule="evenodd"></path>
<path fill="black" d="M504.902 395.907V393.907C503.797 393.907 502.902 394.802 502.902 395.907H504.902ZM554.357 395.907H556.357C556.357 394.802 555.462 393.907 554.357 393.907V395.907ZM504.902 482.328L503.506 483.761C504.082 484.322 504.938 484.484 505.679 484.171C506.42 483.859 506.902 483.133 506.902 482.328H504.902ZM442.215 421.223L443.612 419.791C442.835 419.033 441.596 419.033 440.819 419.791L442.215 421.223ZM407.245 455.311L405.849 453.879C405.463 454.256 405.245 454.772 405.245 455.311C405.245 455.851 405.463 456.367 405.849 456.744L407.245 455.311ZM469.943 516.429V518.429C470.757 518.429 471.489 517.936 471.796 517.182C472.102 516.429 471.922 515.564 471.339 514.997L469.943 516.429ZM381.267 516.429V514.429C380.162 514.429 379.267 515.324 379.267 516.429H381.267ZM381.267 564.638H379.267C379.267 565.742 380.162 566.638 381.267 566.638V564.638ZM469.944 564.638L471.34 566.07C471.923 565.502 472.103 564.638 471.797 563.884C471.49 563.13 470.758 562.638 469.944 562.638V564.638ZM407.246 625.755L405.85 624.323C405.464 624.699 405.246 625.216 405.246 625.755C405.246 626.294 405.464 626.811 405.85 627.187L407.246 625.755ZM442.216 659.844L440.82 661.276C441.597 662.033 442.836 662.033 443.612 661.276L442.216 659.844ZM504.902 598.739H506.902C506.902 597.935 506.42 597.209 505.679 596.896C504.938 596.584 504.082 596.745 503.506 597.307L504.902 598.739ZM504.902 685.16H502.902C502.902 686.264 503.797 687.16 504.902 687.16V685.16ZM554.357 685.16V687.16C555.462 687.16 556.357 686.264 556.357 685.16H554.357ZM554.357 598.715L555.753 597.283C555.177 596.721 554.321 596.559 553.58 596.872C552.839 597.184 552.357 597.91 552.357 598.715H554.357ZM617.067 659.844L615.671 661.276C616.448 662.033 617.687 662.033 618.463 661.276L617.067 659.844ZM652.038 625.755L653.434 627.187C653.82 626.811 654.038 626.294 654.038 625.755C654.038 625.216 653.82 624.699 653.434 624.323L652.038 625.755ZM589.339 564.638V562.638C588.526 562.638 587.793 563.13 587.487 563.884C587.18 564.638 587.361 565.502 587.943 566.07L589.339 564.638ZM678 564.638V566.638C679.105 566.638 680 565.742 680 564.638H678ZM678 516.429H680C680 515.324 679.105 514.429 678 514.429V516.429ZM589.341 516.429L587.945 514.997C587.362 515.564 587.181 516.429 587.488 517.182C587.795 517.936 588.527 518.429 589.341 518.429V516.429ZM652.039 455.311L653.435 456.744C653.821 456.367 654.039 455.851 654.039 455.311C654.039 454.772 653.821 454.256 653.435 453.879L652.039 455.311ZM617.068 421.223L618.464 419.791C617.687 419.033 616.449 419.033 615.672 419.791L617.068 421.223ZM554.357 482.353H552.357C552.357 483.157 552.839 483.883 553.58 484.196C554.321 484.508 555.177 484.346 555.753 483.785L554.357 482.353ZM504.902 397.907H554.357V393.907H504.902V397.907ZM506.902 482.328V395.907H502.902V482.328H506.902ZM440.819 422.655L503.506 483.761L506.298 480.896L443.612 419.791L440.819 422.655ZM408.641 456.744L443.612 422.655L440.819 419.791L405.849 453.879L408.641 456.744ZM471.339 514.997L408.641 453.879L405.849 456.744L468.547 517.861L471.339 514.997ZM381.267 518.429H469.943V514.429H381.267V518.429ZM383.267 564.638V516.429H379.267V564.638H383.267ZM469.944 562.638H381.267V566.638H469.944V562.638ZM408.642 627.187L471.34 566.07L468.548 563.205L405.85 624.323L408.642 627.187ZM443.612 658.412L408.642 624.323L405.85 627.187L440.82 661.276L443.612 658.412ZM503.506 597.307L440.82 658.412L443.612 661.276L506.298 600.171L503.506 597.307ZM506.902 685.16V598.739H502.902V685.16H506.902ZM554.357 683.16H504.902V687.16H554.357V683.16ZM552.357 598.715V685.16H556.357V598.715H552.357ZM618.463 658.412L555.753 597.283L552.961 600.147L615.671 661.276L618.463 658.412ZM650.642 624.323L615.671 658.412L618.463 661.276L653.434 627.187L650.642 624.323ZM587.943 566.07L650.642 627.187L653.434 624.323L590.735 563.205L587.943 566.07ZM678 562.638H589.339V566.638H678V562.638ZM676 516.429V564.638H680V516.429H676ZM589.341 518.429H678V514.429H589.341V518.429ZM650.642 453.879L587.945 514.997L590.737 517.861L653.435 456.744L650.642 453.879ZM615.672 422.655L650.642 456.744L653.435 453.879L618.464 419.791L615.672 422.655ZM555.753 483.785L618.464 422.655L615.672 419.791L552.961 480.921L555.753 483.785ZM552.357 395.907V482.353H556.357V395.907H552.357Z"></path>
</g>
<defs>
<clipPath id="clip0_1072_5883">
<rect fill="white" height="1080" width="1080"></rect>
</clipPath>
</defs>
</svg>
