<svg xmlns="http://www.w3.org/2000/svg" fill="none" viewBox="0 0 1080 1080" height="1080" width="1080">
<rect fill="white" height="1080" width="1080"></rect>
<path fill="#C7B9FF" d="M860.574 497.664C860.574 510.359 859.43 547.444 859.43 547.444C931.46 547.444 989.822 605.805 989.822 677.836C989.822 749.866 939.722 813.95 859.366 813.95C859.366 813.95 540.98 814.371 370.5 814.222V738.729H715.897V438.779H370.5V738.729H181.895V789.471C127.555 757.948 91 699.137 91 631.807C91 531.232 172.567 449.665 273.142 449.665C276.512 449.665 279.881 449.793 283.187 449.983C305.947 312.153 425.658 207 569.91 207C628.865 207 683.721 224.553 729.538 254.718H715.896V438.779H854.606C858.519 457.795 860.574 477.49 860.574 497.664Z" clip-rule="evenodd" fill-rule="evenodd"></path>
<path fill="black" d="M859.43 547.444L857.431 547.382L857.367 549.444H859.43V547.444ZM859.366 813.95L859.366 811.95L859.364 811.95L859.366 813.95ZM370.5 814.222H368.5V816.22L370.499 816.222L370.5 814.222ZM370.5 738.729V736.729H368.5V738.729H370.5ZM715.897 738.729V740.729H717.897V738.729H715.897ZM715.897 438.779H717.897V436.779H715.897V438.779ZM370.5 438.779V436.779H368.5V438.779H370.5ZM370.5 738.729V740.729H372.5V738.729H370.5ZM181.895 738.729V736.729H179.895V738.729H181.895ZM181.895 789.471L180.892 791.201L183.895 792.944V789.471H181.895ZM283.187 449.983L283.072 451.98L284.867 452.084L285.16 450.309L283.187 449.983ZM729.538 254.718V256.718H736.213L730.638 253.048L729.538 254.718ZM715.896 254.718V252.718H713.896V254.718H715.896ZM715.896 438.779H713.896V440.779H715.896V438.779ZM854.606 438.779L856.565 438.375L856.236 436.779H854.606V438.779ZM859.43 547.444C861.429 547.505 861.429 547.505 861.429 547.505C861.429 547.505 861.429 547.504 861.429 547.504C861.429 547.502 861.429 547.501 861.429 547.498C861.429 547.494 861.429 547.487 861.43 547.478C861.43 547.46 861.431 547.433 861.432 547.398C861.434 547.327 861.438 547.222 861.442 547.085C861.45 546.81 861.462 546.405 861.478 545.885C861.509 544.846 861.554 543.347 861.608 541.509C861.715 537.833 861.858 532.798 862.001 527.367C862.287 516.516 862.574 504.043 862.574 497.664H858.574C858.574 503.98 858.289 516.397 858.003 527.262C857.86 532.688 857.717 537.719 857.609 541.392C857.556 543.229 857.511 544.727 857.48 545.765C857.464 546.284 857.452 546.689 857.444 546.963C857.439 547.1 857.436 547.205 857.434 547.275C857.433 547.311 857.432 547.337 857.432 547.355C857.431 547.364 857.431 547.371 857.431 547.375C857.431 547.377 857.431 547.379 857.431 547.38C857.431 547.381 857.431 547.381 857.431 547.381C857.431 547.382 857.431 547.382 859.43 547.444ZM991.822 677.836C991.822 604.701 932.565 545.444 859.43 545.444V549.444C930.356 549.444 987.822 606.91 987.822 677.836H991.822ZM859.366 815.95C941.016 815.95 991.822 750.771 991.822 677.836H987.822C987.822 748.961 938.428 811.95 859.366 811.95V815.95ZM370.499 816.222C455.741 816.297 577.959 816.228 678.865 816.142C729.318 816.098 774.444 816.05 806.957 816.013C823.213 815.994 836.316 815.979 845.355 815.967C849.875 815.962 853.378 815.957 855.752 815.954C856.938 815.953 857.843 815.952 858.45 815.951C858.754 815.95 858.984 815.95 859.137 815.95C859.214 815.95 859.272 815.95 859.311 815.95C859.33 815.95 859.345 815.95 859.354 815.95C859.359 815.95 859.363 815.95 859.365 815.95C859.368 815.95 859.369 815.95 859.366 813.95C859.364 811.95 859.362 811.95 859.36 811.95C859.357 811.95 859.354 811.95 859.349 811.95C859.339 811.95 859.325 811.95 859.305 811.95C859.267 811.95 859.209 811.95 859.132 811.95C858.978 811.95 858.749 811.95 858.445 811.951C857.837 811.952 856.933 811.953 855.746 811.954C853.373 811.957 849.87 811.962 845.35 811.967C836.311 811.979 823.209 811.994 806.952 812.013C774.44 812.05 729.315 812.098 678.862 812.142C577.955 812.229 455.74 812.297 370.502 812.222L370.499 816.222ZM372.5 814.222V738.729H368.5V814.222H372.5ZM370.5 740.729H715.897V736.729H370.5V740.729ZM717.897 738.729V438.779H713.897V738.729H717.897ZM715.897 436.779H370.5V440.779H715.897V436.779ZM368.5 438.779V738.729H372.5V438.779H368.5ZM370.5 736.729H181.895V740.729H370.5V736.729ZM179.895 738.729V789.471H183.895V738.729H179.895ZM89 631.807C89 699.879 125.96 759.335 180.892 791.201L182.899 787.742C129.149 756.561 93 698.395 93 631.807H89ZM273.142 447.665C171.462 447.665 89 530.127 89 631.807H93C93 532.337 173.671 451.665 273.142 451.665V447.665ZM283.302 447.987C279.97 447.794 276.561 447.665 273.142 447.665V451.665C276.462 451.665 279.792 451.791 283.072 451.98L283.302 447.987ZM569.91 205C424.663 205 304.13 310.878 281.214 449.657L285.16 450.309C307.763 313.428 426.654 209 569.91 209V205ZM730.638 253.048C684.505 222.674 629.268 205 569.91 205V209C628.462 209 682.938 226.432 728.438 256.389L730.638 253.048ZM729.538 252.718H715.896V256.718H729.538V252.718ZM713.896 254.718V438.779H717.896V254.718H713.896ZM715.896 440.779H854.606V436.779H715.896V440.779ZM862.574 497.664C862.574 477.354 860.505 457.524 856.565 438.375L852.647 439.182C856.533 458.066 858.574 477.626 858.574 497.664H862.574Z"></path>
<path stroke-miterlimit="10" stroke-width="4" stroke="black" d="M715.896 438.78H370.5V738.73H715.896V438.78Z"></path>
<path stroke-miterlimit="10" stroke-width="4" stroke="black" d="M479.572 496.471L425.036 441.935L370.5 496.471"></path>
<path stroke-miterlimit="10" stroke-width="4" stroke="black" d="M713.622 738.73C553.258 738.73 424.74 621.419 424.74 445.196"></path>
<path stroke-miterlimit="10" stroke-width="4" stroke="black" d="M911.322 254.72H715.9V438.78H911.322V254.72Z"></path>
<path stroke-miterlimit="10" stroke-width="4" stroke="black" d="M776.084 288.953L745.949 258.501L715.815 288.953"></path>
<path stroke-miterlimit="10" stroke-width="4" stroke="black" d="M911.251 437.644C819.958 437.644 745.957 358.327 745.957 260.605"></path>
<path stroke-miterlimit="10" stroke-width="4" stroke="black" d="M181.895 925.062H370.5V738.73H181.895L181.895 925.062Z"></path>
<path stroke-miterlimit="10" stroke-width="4" stroke="black" d="M309.438 772.013L340.147 742.473L370.791 772.013"></path>
<path stroke-miterlimit="10" stroke-width="4" stroke="black" d="M181.596 924.768C272.495 924.768 340.954 840.003 340.954 745.052"></path>
</svg>
