<svg xmlns="http://www.w3.org/2000/svg" fill="none" viewBox="0 0 1080 1080" height="1080" width="1080">
<rect fill="#C7B9FF" height="1080" width="1080"></rect>
<path fill="black" d="M695.048 343.048L542.095 496L387.048 343.048L542.095 188L695.048 343.048ZM892 540L739.048 695.048L586.095 540L739.048 387.048L892 540ZM498.095 540L343.048 695.048L188 540L343.048 387.048L498.095 540ZM695.048 739.048L542.095 892L387.048 739.048L542.095 584L695.048 739.048Z"></path>
<mask fill="black" height="172.534" width="183.394" y="845.027" x="282.782" maskUnits="userSpaceOnUse" id="path-2-outside-1_1072_5969">
<rect height="172.534" width="183.394" y="845.027" x="282.782" fill="white"></rect>
<path d="M306.252 929.445L409.023 853.887L397.865 976.02L362.124 934.658L306.252 929.445Z"></path>
</mask>
<path fill="#FF8577" d="M306.252 929.445L409.023 853.887L397.865 976.02L362.124 934.658L306.252 929.445Z"></path>
<path mask="url(#path-2-outside-1_1072_5969)" fill="black" d="M409.023 853.887L413.007 854.251L413.816 845.399L406.654 850.664L409.023 853.887ZM306.252 929.445L303.882 926.222L295.411 932.451L305.88 933.428L306.252 929.445ZM362.124 934.658L365.151 932.043L364.098 930.825L362.496 930.676L362.124 934.658ZM397.865 976.02L394.838 978.635L400.992 985.757L401.848 976.384L397.865 976.02ZM406.654 850.664L303.882 926.222L308.621 932.668L411.393 857.109L406.654 850.664ZM305.88 933.428L361.753 938.641L362.496 930.676L306.623 925.462L305.88 933.428ZM359.098 937.274L394.838 978.635L400.891 973.405L365.151 932.043L359.098 937.274ZM401.848 976.384L413.007 854.251L405.04 853.523L393.881 975.656L401.848 976.384Z"></path>
<mask fill="black" height="145.281" width="122.334" y="635.986" x="752.34" maskUnits="userSpaceOnUse" id="path-4-outside-2_1072_5969">
<rect height="145.281" width="122.334" y="635.986" x="752.34" fill="white"></rect>
<path d="M782.33 769.342L758.656 644L863.948 706.887L811.196 721.221L782.33 769.342Z"></path>
</mask>
<path fill="#FFC700" d="M782.33 769.342L758.656 644L863.948 706.887L811.196 721.221L782.33 769.342Z"></path>
<path mask="url(#path-4-outside-2_1072_5969)" fill="black" d="M758.656 644L760.707 640.566L753.076 636.008L754.726 644.742L758.656 644ZM782.33 769.342L778.399 770.084L780.351 780.417L785.76 771.4L782.33 769.342ZM811.196 721.221L810.148 717.361L808.594 717.783L807.766 719.164L811.196 721.221ZM863.948 706.887L864.997 710.747L874.079 708.279L865.999 703.453L863.948 706.887ZM754.726 644.742L778.399 770.084L786.26 768.6L762.587 643.258L754.726 644.742ZM785.76 771.4L814.627 723.279L807.766 719.164L778.9 767.284L785.76 771.4ZM812.245 725.081L864.997 710.747L862.899 703.027L810.148 717.361L812.245 725.081ZM865.999 703.453L760.707 640.566L756.605 647.434L861.897 710.321L865.999 703.453Z"></path>
</svg>
