<svg xmlns="http://www.w3.org/2000/svg" fill="none" viewBox="0 0 1080 1080" height="1080" width="1080">
<g clip-path="url(#clip0_1072_5911)">
<rect fill="#FF8577" height="1080" width="1080"></rect>
<circle stroke-width="4" stroke="black" fill="#FFC700" r="740" cy="542" cx="538"></circle>
<circle stroke-width="4" stroke="black" fill="#FF8577" r="662" cy="542" cx="538"></circle>
<circle stroke-width="4" stroke="black" fill="#FFC700" r="582" cy="542" cx="538"></circle>
<circle stroke-width="4" stroke="black" fill="#FF8577" r="508" cy="542" cx="538"></circle>
<circle stroke-width="4" stroke="black" fill="white" r="430" cy="542" cx="538"></circle>
<path fill="#201C1D" d="M371.654 457.314V461.314H371.643V559.903C371.643 598.542 341.371 630.111 303.25 632.187V658.492H774V632.187C735.879 630.111 705.607 598.542 705.607 559.903V459.254V459.231L705.607 459.209C705.614 458.578 705.618 457.945 705.618 457.312C705.618 365.091 630.857 290.33 538.636 290.33C446.414 290.33 371.654 365.091 371.654 457.312V457.313V457.313V457.313V457.314ZM709.607 559.903C709.607 597.675 740.228 628.296 778 628.296V632.296V658.492V662.492H774H303.25H299.25V658.492V632.296V628.296C337.022 628.296 367.643 597.675 367.643 559.903V461.314V457.314H367.654V457.312C367.654 362.881 444.205 286.33 538.636 286.33C633.067 286.33 709.618 362.881 709.618 457.312C709.618 457.96 709.614 458.607 709.607 459.254V559.903ZM538.618 780.18C584.729 780.18 622.109 742.799 622.109 696.689H626.109C626.109 745.009 586.938 784.18 538.618 784.18C490.298 784.18 451.127 745.009 451.127 696.689H455.127C455.127 742.799 492.507 780.18 538.618 780.18Z" clip-rule="evenodd" fill-rule="evenodd"></path>
<circle stroke-width="4" stroke="black" fill="#FF8577" r="54" cy="340" cx="649"></circle>
</g>
<defs>
<clipPath id="clip0_1072_5911">
<rect fill="white" height="1080" width="1080"></rect>
</clipPath>
</defs>
</svg>
