<svg xmlns="http://www.w3.org/2000/svg" fill="none" viewBox="0 0 1080 1080" height="1080" width="1080">
<g clip-path="url(#clip0_1072_5973)">
<rect fill="#C7B9FF" height="1080" width="1080"></rect>
<mask height="1564" width="1280" y="-283" x="-78" maskUnits="userSpaceOnUse" style="mask-type:alpha" id="mask0_1072_5973">
<path fill="#D9D9D9" d="M-78 357.314C-78 3.8513 208.538 -282.686 562 -282.686V-282.686C915.462 -282.686 1202 3.85181 1202 357.314V1280.74H-78V357.314Z"></path>
</mask>
<g mask="url(#mask0_1072_5973)">
<path stroke-width="4" stroke="black" fill="#F5F5F5" d="M210.886 371.995C210.886 273.428 290.79 193.524 389.357 193.524H2394.27C2492.83 193.524 2572.74 273.428 2572.74 371.995V2133.62L210.886 2116.61V371.995Z"></path>
<mask fill="white" id="path-3-inside-1_1072_5973">
<path d="M1299.2 1152.57C1174.38 1186.02 1114.71 1368.08 1165.92 1559.21C1217.13 1750.34 1359.84 1878.18 1484.66 1844.73C1552.14 1826.65 1600.58 1765.13 1622.75 1682.23C1683.41 1742.94 1756.11 1771.99 1823.59 1753.91C1948.41 1720.47 2008.09 1538.41 1956.87 1347.27C1905.66 1156.14 1762.95 1028.31 1638.13 1061.75C1570.65 1079.83 1522.21 1141.35 1500.04 1224.25C1439.39 1163.54 1366.68 1134.49 1299.2 1152.57Z" clip-rule="evenodd" fill-rule="evenodd"></path>
</mask>
<path fill="#FF8577" d="M1299.2 1152.57C1174.38 1186.02 1114.71 1368.08 1165.92 1559.21C1217.13 1750.34 1359.84 1878.18 1484.66 1844.73C1552.14 1826.65 1600.58 1765.13 1622.75 1682.23C1683.41 1742.94 1756.11 1771.99 1823.59 1753.91C1948.41 1720.47 2008.09 1538.41 1956.87 1347.27C1905.66 1156.14 1762.95 1028.31 1638.13 1061.75C1570.65 1079.83 1522.21 1141.35 1500.04 1224.25C1439.39 1163.54 1366.68 1134.49 1299.2 1152.57Z" clip-rule="evenodd" fill-rule="evenodd"></path>
<path mask="url(#path-3-inside-1_1072_5973)" fill="black" d="M1622.75 1682.23L1625.58 1679.4L1620.68 1674.5L1618.89 1681.2L1622.75 1682.23ZM1500.04 1224.25L1497.21 1227.08L1502.11 1231.98L1503.9 1225.28L1500.04 1224.25ZM1169.78 1558.17C1144.35 1463.25 1146.5 1370.75 1170.35 1298C1194.2 1225.21 1239.56 1172.69 1300.24 1156.43L1298.16 1148.71C1234.02 1165.89 1187.13 1221.13 1162.75 1295.51C1138.35 1369.94 1136.28 1464.04 1162.06 1560.24L1169.78 1558.17ZM1483.63 1840.87C1422.95 1857.12 1357.41 1834.32 1300.36 1783.21C1243.33 1732.13 1195.22 1653.1 1169.78 1558.17L1162.06 1560.24C1187.84 1656.45 1236.68 1736.91 1295.02 1789.17C1353.33 1841.4 1421.56 1865.78 1485.7 1848.59L1483.63 1840.87ZM1618.89 1681.2C1596.93 1763.3 1549.23 1823.29 1483.63 1840.87L1485.7 1848.59C1555.06 1830.01 1604.23 1766.97 1626.62 1683.27L1618.89 1681.2ZM1822.56 1750.05C1756.96 1767.63 1685.65 1739.53 1625.58 1679.4L1619.92 1685.06C1681.16 1746.35 1755.27 1776.36 1824.63 1757.78L1822.56 1750.05ZM1953.01 1348.31C1978.44 1443.23 1976.29 1535.73 1952.44 1608.48C1928.59 1681.27 1883.24 1733.79 1822.56 1750.05L1824.63 1757.78C1888.77 1740.59 1935.67 1685.36 1960.05 1610.97C1984.44 1536.54 1986.51 1442.45 1960.74 1346.24L1953.01 1348.31ZM1639.16 1065.62C1699.84 1049.36 1765.38 1072.17 1822.43 1123.28C1879.46 1174.35 1927.57 1253.38 1953.01 1348.31L1960.74 1346.24C1934.96 1250.03 1886.11 1169.57 1827.77 1117.32C1769.47 1065.09 1701.24 1040.7 1637.09 1057.89L1639.16 1065.62ZM1503.9 1225.28C1525.86 1143.18 1573.56 1083.2 1639.16 1065.62L1637.09 1057.89C1567.74 1076.47 1518.56 1139.52 1496.17 1223.22L1503.9 1225.28ZM1300.24 1156.43C1365.84 1138.86 1437.14 1166.96 1497.21 1227.08L1502.87 1221.42C1441.63 1160.13 1367.52 1130.12 1298.16 1148.71L1300.24 1156.43Z"></path>
<path stroke-width="4" stroke="black" fill="black" d="M210.886 278.905C210.886 231.75 249.112 193.524 296.266 193.524H2487.36C2534.51 193.524 2572.74 231.75 2572.74 278.904V401.159H210.886V278.905Z"></path>
<rect fill="#00B6FF" height="162.215" width="162.215" y="219.479" x="437.987"></rect>
<path fill="black" d="M227.205 283.752C227.205 236.598 265.431 198.372 312.586 198.372H1732.86V396.919H227.205V283.752Z"></path>
<path fill="black" d="M227.205 395.833C227.205 287.378 315.125 199.457 423.581 199.457H439.945V395.833H227.205V395.833Z"></path>
<path fill="#F5F5F5" d="M290.135 277.189C290.135 281.376 292.152 285.091 295.267 287.417C292.152 289.743 290.135 293.459 290.135 297.645C290.135 301.832 292.152 305.547 295.267 307.873C292.152 310.199 290.135 313.914 290.135 318.101C290.135 325.146 295.846 330.857 302.891 330.857C309.937 330.857 315.648 325.146 315.648 318.101V310.402V307.873V307.817C317.788 309.439 320.455 310.402 323.347 310.402C330.392 310.402 336.104 304.69 336.104 297.645C336.104 293.459 334.087 289.743 330.972 287.417C334.087 285.091 336.104 281.376 336.104 277.189C336.104 270.144 330.392 264.433 323.347 264.433H315.648H313.119H310.591H302.891C295.846 264.433 290.135 270.144 290.135 277.189ZM323.351 289.946C323.35 289.946 323.349 289.946 323.347 289.946C323.345 289.946 323.344 289.946 323.342 289.946C319.092 289.949 315.648 293.395 315.648 297.645C315.648 301.897 319.095 305.344 323.347 305.344C327.599 305.344 331.047 301.897 331.047 297.645C331.047 293.394 327.602 289.948 323.351 289.946ZM323.347 284.889C327.599 284.889 331.047 281.442 331.047 277.189C331.047 272.937 327.599 269.49 323.347 269.49H315.648V284.889H323.34C323.342 284.889 323.345 284.889 323.347 284.889ZM310.591 297.64V289.946H302.891C298.639 289.946 295.192 293.393 295.192 297.645C295.192 301.897 298.639 305.344 302.891 305.344H310.591V297.65C310.591 297.648 310.591 297.647 310.591 297.645C310.591 297.643 310.591 297.642 310.591 297.64ZM302.891 310.402H310.591V318.101C310.591 322.353 307.144 325.8 302.891 325.8C298.639 325.8 295.192 322.353 295.192 318.101C295.192 313.849 298.639 310.402 302.891 310.402ZM310.591 284.889H302.891C298.639 284.889 295.192 281.442 295.192 277.189C295.192 272.937 298.639 269.49 302.891 269.49H310.591V284.889Z" clip-rule="evenodd" fill-rule="evenodd"></path>
<path stroke-linecap="square" stroke-width="5.05714" stroke="#F5F5F5" d="M369.899 298.142L378.578 306.82L387.256 298.142"></path>
<g clip-path="url(#clip1_1072_5973)">
<rect fill="#00B6FF" transform="translate(439.945 199.457)" height="196.376" width="196.376"></rect>
<path stroke-linecap="square" stroke-width="5.05714" stroke="white" d="M509.779 324.238L498.804 271.052L544.732 298.817L522.635 304.814L509.779 324.238Z"></path>
<path stroke-linecap="square" stroke-width="5.05714" stroke="white" d="M582.64 298.142L591.318 306.82L599.997 298.142"></path>
</g>
<rect fill="black" transform="translate(636.321 199.457)" height="196.376" width="196.376"></rect>
<path fill="#F5F5F5" d="M738.117 277.189V264.916H743.174V276.706H754.965V281.763H742.691L742.691 282.246V313.044L742.691 313.527H754.965V318.584H743.174V330.374H738.117V318.101H737.634H706.837H706.354V330.374H701.297V318.584H689.506V313.527H701.78V313.044V282.246V281.763H689.506V276.706H701.297V264.916H706.354V277.189H706.837H737.634H738.117ZM737.634 282.246H706.837V313.044H737.634V282.246Z" clip-rule="evenodd" fill-rule="evenodd"></path>
<path stroke-linecap="square" stroke-width="5.05714" stroke="#F5F5F5" d="M779.015 298.142L787.694 306.82L796.373 298.142"></path>
<rect fill="black" transform="translate(832.697 199.457)" height="196.376" width="196.376"></rect>
<rect stroke-linecap="square" stroke-width="5.05714" stroke="#F5F5F5" height="60.4014" width="60.4014" y="267.444" x="888.41"></rect>
<path stroke-linecap="square" stroke-width="4.09116" stroke="#F5F5F5" d="M975.391 298.142L984.07 306.82L992.748 298.142"></path>
<rect fill="black" transform="translate(1029.07 199.457)" height="196.376" width="196.376"></rect>
</g>
<path stroke-width="4" stroke="black" fill="#FFC700" d="M549.501 977.818L550.645 974.167L546.994 975.312C481.292 995.908 420.956 989.526 384.028 952.597C350.569 919.139 342.185 866.488 356.226 807.993C370.258 749.537 406.634 685.593 462.113 630.113C517.593 574.634 581.537 538.258 639.993 524.226C698.488 510.186 751.139 518.569 784.597 552.028C821.526 588.956 827.908 649.292 807.312 714.994L806.167 718.645L809.818 717.501C875.521 696.905 935.856 703.286 972.785 740.215C1009.71 777.144 1016.1 837.479 995.499 903.182L994.355 906.833L998.006 905.688C1063.71 885.092 1124.04 891.474 1160.97 928.403C1194.43 961.861 1202.81 1014.51 1188.77 1073.01C1174.74 1131.46 1138.37 1195.41 1082.89 1250.89C1027.41 1306.37 963.463 1342.74 905.007 1356.77C846.512 1370.81 793.861 1362.43 760.403 1328.97C723.474 1292.04 717.092 1231.71 737.688 1166.01L738.833 1162.35L735.182 1163.5C669.479 1184.1 609.144 1177.71 572.215 1140.78C535.286 1103.86 528.905 1043.52 549.501 977.818Z"></path>
<circle stroke-width="4" stroke="black" fill="white" transform="rotate(-60 548.139 975.637)" r="20.9406" cy="975.637" cx="548.139"></circle>
<circle stroke-width="4" stroke="black" fill="white" transform="rotate(-60 805.697 719.159)" r="20.9406" cy="719.159" cx="805.697"></circle>
<circle stroke-width="4" stroke="black" fill="white" transform="rotate(-60 992.955 907.269)" r="20.9406" cy="907.269" cx="992.955"></circle>
<circle stroke-width="4" stroke="black" fill="white" transform="rotate(-60 471.693 622.885)" r="20.9406" cy="622.885" cx="471.693"></circle>
<path stroke-linecap="square" stroke-width="6.08593" stroke="white" fill="black" d="M607.059 720.683L494.191 653.988L519.986 788.125L546.997 730.061L607.059 720.683Z" clip-rule="evenodd" fill-rule="evenodd"></path>
</g>
<defs>
<clipPath id="clip0_1072_5973">
<rect fill="white" height="1080" width="1080"></rect>
</clipPath>
<clipPath id="clip1_1072_5973">
<rect transform="translate(439.945 199.457)" fill="white" height="196.376" width="196.376"></rect>
</clipPath>
</defs>
</svg>
